<svg width="22" height="22" viewBox="0 0 22 22" fill="none" xmlns="http://www.w3.org/2000/svg">
<path fill-rule="evenodd" clip-rule="evenodd" d="M6.49715 1.68712C6.87667 1.52116 7.04979 1.07897 6.88383 0.699452C6.71787 0.319938 6.27568 0.146817 5.89617 0.312775C3.63941 1.29963 1.72454 2.92017 0.375531 4.9491C0.146191 5.29403 0.239895 5.75957 0.584825 5.98891C0.929754 6.21825 1.39529 6.12454 1.62463 5.77961C2.81588 3.98796 4.50681 2.55748 6.49715 1.68712ZM16.104 0.312775C15.7245 0.146817 15.2823 0.319938 15.1163 0.699452C14.9504 1.07897 15.1235 1.52116 15.503 1.68712C17.4934 2.55748 19.1843 3.98796 20.3755 5.77961C20.6049 6.12454 21.0704 6.21824 21.4153 5.9889C21.7603 5.75957 21.854 5.29403 21.6246 4.9491C20.2756 2.92017 18.3607 1.29963 16.104 0.312775ZM18.4493 17.8963C19.7333 16.2763 20.5001 14.2277 20.5001 12C20.5001 6.75329 16.2468 2.5 11.0001 2.5C5.75336 2.5 1.50006 6.75329 1.50006 12C1.50006 14.2276 2.26679 16.2762 3.55075 17.8962L1.41742 20.5277C1.15657 20.8495 1.20596 21.3218 1.52772 21.5826C1.84948 21.8435 2.32178 21.7941 2.58263 21.4723L4.58283 19.005C6.27326 20.5544 8.52623 21.5 11.0001 21.5C13.4738 21.5 15.7268 20.5545 17.4172 19.0051L19.4174 21.4723C19.6783 21.7941 20.1506 21.8435 20.4723 21.5826C20.7941 21.3218 20.8435 20.8495 20.5826 20.5277L18.4493 17.8963ZM11 6.25C11.4142 6.25 11.75 6.58579 11.75 7V11.5986L14.416 13.376C14.7607 13.6057 14.8538 14.0714 14.624 14.416C14.3943 14.7607 13.9286 14.8538 13.584 14.624L10.584 12.624C10.3753 12.4849 10.25 12.2508 10.25 12V7C10.25 6.58579 10.5858 6.25 11 6.25Z" fill="white"/>
</svg>
