<svg width="24" height="14" viewBox="0 0 24 14" fill="none" xmlns="http://www.w3.org/2000/svg">
<path d="M7 13V12C7 10.6739 7.52678 9.40215 8.46447 8.46447C9.40215 7.52678 10.6739 7 12 7M12 7C13.3261 7 14.5979 7.52678 15.5355 8.46447C16.4732 9.40215 17 10.6739 17 12V13M12 7C12.7956 7 13.5587 6.68393 14.1213 6.12132C14.6839 5.55871 15 4.79565 15 4C15 3.20435 14.6839 2.44129 14.1213 1.87868C13.5587 1.31607 12.7956 1 12 1C11.2044 1 10.4413 1.31607 9.87868 1.87868C9.31607 2.44129 9 3.20435 9 4C9 4.79565 9.31607 5.55871 9.87868 6.12132C10.4413 6.68393 11.2044 7 12 7ZM1 13V12C1 11.2044 1.31607 10.4413 1.87868 9.87868C2.44129 9.31607 3.20435 9 4 9M4 9C4.53043 9 5.03914 8.78929 5.41421 8.41421C5.78929 8.03914 6 7.53043 6 7C6 6.46957 5.78929 5.96086 5.41421 5.58579C5.03914 5.21071 4.53043 5 4 5C3.46957 5 2.96086 5.21071 2.58579 5.58579C2.21071 5.96086 2 6.46957 2 7C2 7.53043 2.21071 8.03914 2.58579 8.41421C2.96086 8.78929 3.46957 9 4 9ZM23 13V12C23 11.2044 22.6839 10.4413 22.1213 9.87868C21.5587 9.31607 20.7956 9 20 9M20 9C20.5304 9 21.0391 8.78929 21.4142 8.41421C21.7893 8.03914 22 7.53043 22 7C22 6.46957 21.7893 5.96086 21.4142 5.58579C21.0391 5.21071 20.5304 5 20 5C19.4696 5 18.9609 5.21071 18.5858 5.58579C18.2107 5.96086 18 6.46957 18 7C18 7.53043 18.2107 8.03914 18.5858 8.41421C18.9609 8.78929 19.4696 9 20 9Z" stroke="#6F6F6F" stroke-width="1.5" stroke-linecap="round" stroke-linejoin="round"/>
</svg>
