<svg width="26" height="22" viewBox="0 0 26 22" fill="none" xmlns="http://www.w3.org/2000/svg">
<path d="M4.875 2.58802C4.44402 2.58802 4.0307 2.72435 3.72595 2.96703C3.42121 3.2097 3.25 3.53884 3.25 3.88203V14.2341C3.25 14.5773 3.42121 14.9064 3.72595 15.1491C4.0307 15.3918 4.44402 15.5281 4.875 15.5281H8.125C8.55598 15.5281 8.9693 15.6645 9.27405 15.9071C9.57879 16.1498 9.75 16.4789 9.75 16.8221V18.4189L15.4148 15.7093C15.6675 15.5899 15.9561 15.5273 16.25 15.5281H21.125C21.556 15.5281 21.9693 15.3918 22.274 15.1491C22.5788 14.9064 22.75 14.5773 22.75 14.2341V3.88203C22.75 3.53884 22.5788 3.2097 22.274 2.96703C21.9693 2.72435 21.556 2.58802 21.125 2.58802H4.875ZM0 3.88203C0 2.85245 0.513615 1.86504 1.42785 1.13702C2.34209 0.408999 3.58207 0 4.875 0H21.125C22.4179 0 23.6579 0.408999 24.5721 1.13702C25.4864 1.86504 26 2.85245 26 3.88203V14.2341C26 15.2637 25.4864 16.2511 24.5721 16.9791C23.6579 17.7071 22.4179 18.1161 21.125 18.1161H16.6985L8.9635 21.8144C8.7168 21.9328 8.43504 21.9968 8.14707 21.9999C7.85909 22.003 7.57525 21.9451 7.32461 21.8321C7.07396 21.7192 6.86552 21.5552 6.72063 21.357C6.57574 21.1588 6.49959 20.9335 6.5 20.7042V18.1161H4.875C3.58207 18.1161 2.34209 17.7071 1.42785 16.9791C0.513615 16.2511 0 15.2637 0 14.2341V3.88203Z" fill="black"/>
</svg>
