<svg width="20" height="21" viewBox="0 0 20 21" fill="none" xmlns="http://www.w3.org/2000/svg">
<path d="M15.8334 9.45832H14.1667C12.15 9.45832 11.0417 8.34999 11.0417 6.33332V4.66666C11.0417 2.64999 12.15 1.54166 14.1667 1.54166H15.8334C17.85 1.54166 18.9584 2.64999 18.9584 4.66666V6.33332C18.9584 8.34999 17.85 9.45832 15.8334 9.45832ZM14.1667 2.79166C12.85 2.79166 12.2917 3.34999 12.2917 4.66666V6.33332C12.2917 7.64999 12.85 8.20832 14.1667 8.20832H15.8334C17.15 8.20832 17.7084 7.64999 17.7084 6.33332V4.66666C17.7084 3.34999 17.15 2.79166 15.8334 2.79166H14.1667Z" fill="#6F6F6F"/>
<path d="M5.83335 19.4583H4.16669C2.15002 19.4583 1.04169 18.35 1.04169 16.3333V14.6667C1.04169 12.65 2.15002 11.5417 4.16669 11.5417H5.83335C7.85002 11.5417 8.95835 12.65 8.95835 14.6667V16.3333C8.95835 18.35 7.85002 19.4583 5.83335 19.4583ZM4.16669 12.7917C2.85002 12.7917 2.29169 13.35 2.29169 14.6667V16.3333C2.29169 17.65 2.85002 18.2083 4.16669 18.2083H5.83335C7.15002 18.2083 7.70835 17.65 7.70835 16.3333V14.6667C7.70835 13.35 7.15002 12.7917 5.83335 12.7917H4.16669Z" fill="#6F6F6F"/>
<path d="M5.00002 9.45832C2.81669 9.45832 1.04169 7.68332 1.04169 5.49999C1.04169 3.31666 2.81669 1.54166 5.00002 1.54166C7.18335 1.54166 8.95835 3.31666 8.95835 5.49999C8.95835 7.68332 7.18335 9.45832 5.00002 9.45832ZM5.00002 2.79166C3.50835 2.79166 2.29169 4.00832 2.29169 5.49999C2.29169 6.99166 3.50835 8.20832 5.00002 8.20832C6.49169 8.20832 7.70835 6.99166 7.70835 5.49999C7.70835 4.00832 6.49169 2.79166 5.00002 2.79166Z" fill="#6F6F6F"/>
<path d="M15 19.4583C12.8167 19.4583 11.0417 17.6833 11.0417 15.5C11.0417 13.3167 12.8167 11.5417 15 11.5417C17.1834 11.5417 18.9584 13.3167 18.9584 15.5C18.9584 17.6833 17.1834 19.4583 15 19.4583ZM15 12.7917C13.5084 12.7917 12.2917 14.0083 12.2917 15.5C12.2917 16.9917 13.5084 18.2083 15 18.2083C16.4917 18.2083 17.7084 16.9917 17.7084 15.5C17.7084 14.0083 16.4917 12.7917 15 12.7917Z" fill="#6F6F6F"/>
</svg>
