<svg width="18" height="22" viewBox="0 0 18 22" fill="none" xmlns="http://www.w3.org/2000/svg">
<path d="M17 9.18182C17 15.5455 9 21 9 21C9 21 1 15.5455 1 9.18182C1 7.01186 1.84285 4.93079 3.34315 3.3964C4.84344 1.86201 6.87827 1 9 1C11.1217 1 13.1566 1.86201 14.6569 3.3964C16.1571 4.93079 17 7.01186 17 9.18182Z" stroke="#6F6F6F" stroke-width="1.5" stroke-linecap="round" stroke-linejoin="round"/>
<path d="M9 11.5C10.5188 11.5 11.75 10.2688 11.75 8.75C11.75 7.23122 10.5188 6 9 6C7.48122 6 6.25 7.23122 6.25 8.75C6.25 10.2688 7.48122 11.5 9 11.5Z" stroke="#6F6F6F" stroke-width="1.5" stroke-linecap="round" stroke-linejoin="round"/>
</svg>
