<svg width="25" height="26" viewBox="0 0 25 26" fill="none" xmlns="http://www.w3.org/2000/svg">
<g clip-path="url(#clip0_313_921)">
<path d="M22.8125 20.3161L22.5764 20.0995C21.9065 19.4788 21.3202 18.767 20.8333 17.9834C20.3015 16.9019 19.9828 15.7208 19.8958 14.5095V10.9417C19.9004 9.03909 19.2368 7.20021 18.0297 5.77057C16.8225 4.34093 15.155 3.41894 13.3403 3.17782V2.24615C13.3403 1.99044 13.2426 1.7452 13.0687 1.56438C12.8949 1.38356 12.6591 1.28198 12.4132 1.28198C12.1673 1.28198 11.9315 1.38356 11.7576 1.56438C11.5838 1.7452 11.4861 1.99044 11.4861 2.24615V3.19226C9.68767 3.45076 8.04024 4.37833 6.84896 5.80317C5.65769 7.22801 5.00327 9.05356 5.00693 10.9417V14.5095C4.91996 15.7208 4.60122 16.9019 4.06943 17.9834C3.59088 18.7651 3.01401 19.4767 2.35415 20.0995L2.11804 20.3161V22.3528H22.8125V20.3161Z" fill="black"/>
<path d="M10.6389 23.1111C10.6998 23.5689 10.9179 23.9883 11.253 24.2919C11.5881 24.5955 12.0174 24.7627 12.4618 24.7627C12.9062 24.7627 13.3356 24.5955 13.6707 24.2919C14.0057 23.9883 14.2239 23.5689 14.2847 23.1111H10.6389Z" fill="black"/>
</g>
<defs>
<clipPath id="clip0_313_921">
<rect width="25" height="26" fill="white"/>
</clipPath>
</defs>
</svg>
