<svg width="25" height="25" viewBox="0 0 25 25" fill="none" xmlns="http://www.w3.org/2000/svg">
<path d="M22.0928 14.778L21.9814 13.6586L21.9443 13.662L21.9083 13.6688L22.0928 14.778ZM22.0928 14.778L22.2053 15.8974L22.2424 15.894L22.2784 15.8884L22.0928 14.778ZM17.5478 20.9453L18.2599 20.0745L18.2509 20.0678L17.5478 20.9453ZM17.5478 20.9453L16.8356 21.816L16.8446 21.8239L17.5478 20.9453ZM7.20227 20.9453L6.49015 20.0756L6.47215 20.0903L6.45527 20.1049L7.20227 20.9453ZM7.20227 20.9453L7.9144 21.8171L7.9324 21.8025L7.94927 21.7868L7.20227 20.9453ZM2.65615 9.97202V8.84702H2.5999L2.54477 8.85265L2.65615 9.97202ZM2.65615 9.97202V11.097H2.7124L2.76865 11.0914L2.65615 9.97202ZM15.8974 2.54365C15.8786 2.32728 15.8519 2.11156 15.8198 1.89677C15.7847 1.66045 15.7125 1.43113 15.606 1.21727L13.6069 2.25002C13.581 2.1994 13.5866 2.1814 13.6013 2.27027C13.6181 2.3704 13.6328 2.5099 13.6586 2.76865L15.8974 2.54365ZM16.0043 3.6124C16.0751 3.70465 16.0515 3.74627 16.0121 3.5269C15.975 3.31765 15.9458 3.02402 15.8974 2.54365L13.6575 2.76752C13.7025 3.21077 13.7408 3.60902 13.7981 3.92627C13.8533 4.23002 13.95 4.6294 14.2144 4.9759L16.0043 3.6124ZM16.0043 3.6124L14.2144 4.9759C14.4552 5.29185 14.7753 5.53843 15.1422 5.69058C15.5091 5.84273 15.9098 5.89502 16.3035 5.84215L16.0043 3.6124ZM16.8345 2.93177C16.5824 3.14486 16.3231 3.34935 16.0571 3.5449C15.8738 3.67202 15.8884 3.62702 16.0043 3.6124L16.3035 5.84215C16.7355 5.78365 17.0865 5.5699 17.3408 5.39215C17.6051 5.2099 17.9145 4.95565 18.2588 4.67327L16.8345 2.93177ZM17.9775 2.20052C17.7512 2.27621 17.5382 2.38706 17.3464 2.52902C17.1889 2.64152 17.0123 2.78665 16.8345 2.93177L18.2588 4.67327C18.4601 4.50902 18.5693 4.42015 18.6525 4.36165C18.7256 4.30877 18.7155 4.32677 18.6626 4.34365L17.9775 2.20052ZM19.557 2.27927C19.0574 2.06276 18.4962 2.03478 17.9775 2.20052L18.6626 4.34365L19.557 2.27927ZM20.6213 3.12077C20.4699 2.96495 20.3134 2.81412 20.1521 2.66852C19.9751 2.50825 19.7739 2.37689 19.5559 2.27927L18.6626 4.34365C18.6109 4.32115 18.603 4.30315 18.6705 4.36277C18.747 4.43027 18.8471 4.52815 19.0305 4.71152L20.6213 3.12077ZM21.627 4.12652L20.6213 3.12077L19.0305 4.71152L20.0363 5.71727L21.627 4.12652ZM22.4685 5.19077C22.3709 4.9728 22.2395 4.77158 22.0793 4.59452C21.9334 4.43391 21.7825 4.27784 21.627 4.12652L20.0363 5.7184C20.2196 5.90177 20.3175 6.0019 20.385 6.0784C20.4447 6.1459 20.4266 6.13802 20.4041 6.08627L22.4685 5.19077ZM22.5473 6.77027C22.713 6.25159 22.685 5.6904 22.4685 5.19077L20.4041 6.08627L22.5473 6.77027ZM21.816 7.91327C21.956 7.74725 22.0903 7.57653 22.2188 7.4014C22.338 7.2349 22.4663 7.0279 22.5473 6.77027L20.4041 6.08627C20.421 6.0334 20.4379 6.02215 20.3861 6.0964C20.3276 6.17852 20.2399 6.28765 20.0745 6.48902L21.816 7.91327ZM21.1354 8.74465C21.1208 8.86052 21.0758 8.87402 21.2029 8.69065C21.3233 8.51627 21.51 8.28677 21.816 7.91327L20.0745 6.48902C19.7933 6.83327 19.5379 7.14265 19.3545 7.40702C19.1779 7.66127 18.9641 8.01227 18.9056 8.44427L21.1354 8.74465ZM21.1354 8.74465L18.9056 8.44427C18.8528 8.83797 18.9051 9.23865 19.0572 9.60558C19.2094 9.97252 19.4559 10.2926 19.7719 10.5334L21.1354 8.74465ZM22.2041 8.85152C21.8752 8.82399 21.5473 8.78534 21.2209 8.73565C21.0015 8.69627 21.0431 8.67377 21.1354 8.74465L19.7719 10.5334C20.1184 10.7978 20.5166 10.8945 20.8226 10.9496C21.1388 11.0059 21.537 11.0453 21.9803 11.0903L22.2041 8.85152ZM23.5305 9.14177C23.3167 9.03525 23.0874 8.96311 22.851 8.92802C22.6362 8.89585 22.4205 8.87034 22.2041 8.85152L21.9803 11.0903C22.1468 11.1049 22.313 11.1237 22.4786 11.1465C22.5686 11.1623 22.5495 11.1679 22.4989 11.142L23.5305 9.14177ZM24.5914 10.3151C24.3915 9.80851 24.0145 9.3916 23.5305 9.14177L22.5 11.1443L24.5914 10.3151ZM24.7489 11.6629C24.7489 11.4334 24.7489 11.205 24.7365 11.0115C24.7248 10.7728 24.6755 10.5374 24.5903 10.314L22.5 11.1443C22.4798 11.0914 22.4865 11.0734 22.4933 11.1634C22.5 11.2646 22.5 11.4053 22.5 11.6651L24.7489 11.6629ZM24.7489 13.0849V11.6629H22.4989V13.0849H24.7489ZM24.5914 14.4326C24.6904 14.1818 24.723 13.941 24.7365 13.7351C24.7489 13.5428 24.7489 13.3144 24.7489 13.0849H22.4989C22.4989 13.3448 22.4989 13.4854 22.4921 13.5866C22.4854 13.6766 22.4786 13.6586 22.4989 13.6058L24.5914 14.4326ZM23.5305 15.606C24.0145 15.3562 24.3915 14.9393 24.5914 14.4326L22.5 13.6069L23.5305 15.606ZM22.2041 15.8963C22.4336 15.8738 22.6598 15.8513 22.851 15.8198C23.0535 15.786 23.2898 15.7298 23.5305 15.606L22.5 13.6069C22.5495 13.581 22.5686 13.5866 22.4798 13.6013C22.3142 13.6252 22.148 13.6444 21.9814 13.6586L22.2041 15.8963ZM21.1365 16.0031C21.0431 16.074 21.0015 16.0515 21.2209 16.0121C21.4301 15.975 21.7238 15.9446 22.2041 15.8963L21.9803 13.6575C21.5381 13.7025 21.1388 13.7408 20.8226 13.7981C20.5178 13.8533 20.1184 13.95 19.7719 14.2144L21.1365 16.0031ZM21.1365 16.0031L19.7719 14.2144C19.4559 14.4552 19.2094 14.7753 19.0572 15.1422C18.9051 15.5091 18.8528 15.9098 18.9056 16.3035L21.1365 16.0031ZM21.816 16.8334C21.603 16.5816 21.3985 16.3227 21.2029 16.0571C21.0758 15.8738 21.1219 15.8873 21.1365 16.0031L18.9056 16.3035C18.9641 16.7355 19.1779 17.0865 19.3556 17.3408C19.539 17.6051 19.7933 17.9145 20.0745 18.2588L21.816 16.8334ZM22.5473 17.9764C22.4715 17.7505 22.3606 17.5379 22.2188 17.3464C22.1063 17.1878 21.9611 17.0123 21.816 16.8334L20.0745 18.2588C20.2388 18.4601 20.3276 18.5681 20.3861 18.6514C20.439 18.7245 20.4221 18.7155 20.4041 18.6626L22.5473 17.9764ZM22.4685 19.557C22.6853 19.0571 22.7133 18.4954 22.5473 17.9764L20.4041 18.6626L22.4685 19.557ZM21.627 20.6213C21.7901 20.4581 21.951 20.2984 22.0793 20.1521C22.2143 19.9969 22.3605 19.8045 22.4685 19.5559L20.4041 18.6615C20.4266 18.6098 20.4447 18.603 20.385 18.6705C20.3175 18.747 20.2196 18.846 20.0363 19.0305L21.627 20.6213ZM20.6213 21.6259L21.627 20.6213L20.0363 19.0305L19.0305 20.0351L20.6213 21.6259ZM19.557 22.4685C19.7751 22.3706 19.9763 22.2388 20.1533 22.0781C20.2984 21.951 20.4593 21.789 20.6213 21.6259L19.0305 20.0351C18.9138 20.1548 18.7938 20.2711 18.6705 20.3839C18.603 20.4446 18.6109 20.4266 18.6626 20.4041L19.557 22.4685ZM17.9775 22.5473C18.4962 22.713 19.0574 22.685 19.557 22.4685L18.6626 20.4041L17.9775 22.5473ZM16.8345 21.816C17.0123 21.9611 17.1878 22.1063 17.3464 22.2188C17.5129 22.3369 17.7199 22.4651 17.9775 22.5473L18.6626 20.4041C18.7155 20.421 18.7256 20.4379 18.6514 20.3861C18.5176 20.2861 18.3866 20.1821 18.2588 20.0745L16.8345 21.816ZM16.0043 21.1365C15.8884 21.1196 15.8738 21.0746 16.0571 21.2018C16.2315 21.3233 16.4599 21.5089 16.8334 21.8149L18.2588 20.0745C17.9145 19.7921 17.6051 19.5379 17.3408 19.3545C17.0865 19.1768 16.7355 18.9641 16.3035 18.9056L16.0043 21.1365ZM16.0043 21.1365L16.3035 18.9056C15.9098 18.8528 15.5091 18.9051 15.1422 19.0572C14.7753 19.2094 14.4552 19.4559 14.2144 19.7719L16.0043 21.1365ZM15.8963 22.2041C15.9446 21.7238 15.975 21.429 16.0121 21.2209C16.0515 21.0015 16.074 21.042 16.0031 21.1354L14.2144 19.7708C13.95 20.1173 13.8533 20.5166 13.7981 20.8215C13.7419 21.1388 13.7036 21.537 13.6586 21.9803L15.8963 22.2041ZM15.6049 23.5305C15.7286 23.2898 15.7849 23.0535 15.8186 22.851C15.8524 22.6598 15.8726 22.4336 15.8963 22.2041L13.6586 21.9803C13.6436 22.1473 13.6241 22.3127 13.6001 22.4786C13.5855 22.5686 13.5799 22.5495 13.6058 22.4989L15.6049 23.5305ZM14.4338 24.5914C14.9396 24.391 15.3556 24.0141 15.6049 23.5305L13.6069 22.5L14.4338 24.5914ZM13.0838 24.7489C13.3144 24.7489 13.5428 24.7489 13.7363 24.7365C13.941 24.723 14.1818 24.6926 14.4338 24.5914L13.6069 22.5C13.6598 22.4798 13.6778 22.4865 13.5878 22.4933C13.4206 22.5003 13.2533 22.5026 13.086 22.5L13.0838 24.7489ZM11.6629 24.7489H13.0838L13.0849 22.4989H11.6629V24.7489ZM10.3151 24.5914C10.566 24.6904 10.8068 24.723 11.0126 24.7365C11.205 24.7489 11.4334 24.7489 11.6629 24.7489V22.4989C11.403 22.4989 11.2624 22.4989 11.1611 22.4921C11.0711 22.4854 11.0891 22.4786 11.142 22.4989L10.3151 24.5914ZM9.14177 23.5305C9.3916 24.0145 9.80851 24.3915 10.3151 24.5914L11.142 22.4989L9.14177 23.5305ZM8.85152 22.2041C8.87402 22.4336 8.89652 22.6598 8.92802 22.851C8.96177 23.0535 9.01802 23.2898 9.14177 23.5305L11.1443 22.5C11.1701 22.5495 11.1645 22.5686 11.1499 22.4798C11.1259 22.3142 11.1068 22.148 11.0925 21.9814L8.85152 22.2041ZM8.74465 21.1354C8.67377 21.0431 8.69627 21.0004 8.73565 21.2209C8.77277 21.429 8.80315 21.7238 8.85152 22.2041L11.0903 21.9803C11.0453 21.537 11.007 21.1388 10.9496 20.8215C10.8945 20.5178 10.7978 20.1184 10.5334 19.7719L8.74465 21.1354ZM8.74465 21.1354L10.5334 19.7719C10.2926 19.4559 9.97252 19.2094 9.60558 19.0572C9.23865 18.9051 8.83797 18.8528 8.44427 18.9056L8.74465 21.1354ZM7.91327 21.816C8.2879 21.51 8.51627 21.3233 8.69065 21.2029C8.87402 21.0758 8.86052 21.1208 8.74465 21.1354L8.44427 18.9056C8.01227 18.9641 7.66127 19.1779 7.40702 19.3556C7.14265 19.5379 6.83327 19.7921 6.48902 20.0745L7.91327 21.816ZM6.77027 22.5473C6.99659 22.4716 7.20958 22.3607 7.4014 22.2188C7.5589 22.1063 7.73552 21.9611 7.91327 21.816L6.49015 20.0756C6.36191 20.1833 6.23173 20.2872 6.09752 20.3873C6.0244 20.4401 6.03452 20.4233 6.0874 20.4053L6.77027 22.5473ZM5.19077 22.4685C5.6904 22.685 6.25159 22.713 6.77027 22.5473L6.08515 20.4041L5.19077 22.4685ZM4.1254 21.627C4.28852 21.7901 4.4494 21.951 4.59565 22.0793C4.74977 22.2143 4.94215 22.3616 5.1919 22.4696L6.08515 20.4041C6.1369 20.4266 6.14477 20.4447 6.07727 20.385C5.95393 20.2723 5.83388 20.156 5.71727 20.0363L4.1254 21.627ZM3.12077 20.6213L4.12652 21.627L5.71727 20.0363L4.71152 19.0305L3.12077 20.6213ZM2.27927 19.557C2.38615 19.8045 2.53352 19.998 2.66852 20.1533C2.79677 20.2984 2.95765 20.4593 3.12077 20.6213L4.71152 19.0305C4.59184 18.9139 4.47554 18.7938 4.36277 18.6705C4.30315 18.603 4.32115 18.6109 4.34365 18.6626L2.27927 19.557ZM2.20052 17.9775C2.03478 18.4962 2.06276 19.0574 2.27927 19.557L4.34365 18.6626L2.20052 17.9775ZM2.93177 16.8345C2.79178 17.0005 2.65745 17.1713 2.52902 17.3464C2.38706 17.5382 2.27621 17.7512 2.20052 17.9775L4.34365 18.6626C4.32565 18.7155 4.3099 18.7256 4.36165 18.6514C4.42015 18.5693 4.5079 18.4601 4.67327 18.2588L2.93177 16.8345ZM3.61127 16.0031C3.62702 15.8873 3.67202 15.8738 3.5449 16.0571C3.42452 16.2315 3.23777 16.461 2.93177 16.8345L4.67327 18.2588C4.95452 17.9145 5.2099 17.6051 5.39327 17.3408C5.5699 17.0865 5.78365 16.7355 5.84215 16.3035L3.61127 16.0031ZM3.61127 16.0031L5.84215 16.3035C5.89502 15.9098 5.84273 15.5091 5.69058 15.1422C5.53843 14.7753 5.29185 14.4552 4.9759 14.2144L3.61127 16.0031ZM2.54252 15.8963C3.02402 15.9446 3.31877 15.975 3.5269 16.0121C3.74627 16.0515 3.70465 16.074 3.61127 16.0031L4.9759 14.2144C4.6294 13.95 4.23115 13.8533 3.92515 13.7981C3.60902 13.7419 3.21077 13.7025 2.7664 13.6575L2.54252 15.8963ZM1.21727 15.606C1.45802 15.7298 1.69427 15.786 1.89677 15.8198C2.08802 15.8513 2.31415 15.8749 2.54365 15.8974L2.7664 13.6575C2.59976 13.6436 2.43469 13.6248 2.26915 13.6013C2.17915 13.5855 2.19827 13.5799 2.2489 13.6058L1.21727 15.606ZM0.157523 14.4338C0.35747 14.9404 0.734408 15.3573 1.2184 15.6071L2.25002 13.6069L0.157523 14.4338ZM2.29569e-05 13.086C2.29569e-05 13.3155 2.2999e-05 13.5439 0.012398 13.7374C0.025898 13.9421 0.057398 14.1829 0.158648 14.4349L2.25002 13.6058C2.27027 13.6586 2.26352 13.6766 2.2579 13.5866C2.25048 13.4199 2.24785 13.2529 2.25002 13.086H2.29569e-05ZM2.29569e-05 11.664V13.086H2.25002V11.664H2.29569e-05ZM0.157523 10.3151C0.0727773 10.5386 0.0238006 10.774 0.012398 11.0126C-0.001102 11.2061 2.29569e-05 11.4345 2.29569e-05 11.6651H2.25002C2.25002 11.4041 2.25002 11.2635 2.2579 11.1623C2.26352 11.0723 2.27027 11.0903 2.25002 11.1431L0.157523 10.3151ZM1.2184 9.14402C0.734813 9.3933 0.357928 9.80935 0.157523 10.3151L2.25002 11.1431L1.2184 9.14402ZM2.54477 8.85152C2.31527 8.87515 2.08915 8.89652 1.8979 8.93027C1.6954 8.96402 1.45915 9.02027 1.2184 9.14402L2.25002 11.1431C2.1994 11.169 2.1814 11.1634 2.27027 11.1488C2.43581 11.1248 2.602 11.1057 2.76865 11.0914L2.54477 8.85152ZM3.61352 8.74577C3.7069 8.6749 3.74852 8.6974 3.52802 8.73677C3.3199 8.7739 3.02515 8.80427 2.54477 8.85265L2.76865 11.0914C3.21077 11.0464 3.61015 11.0081 3.9274 10.9508C4.23227 10.8956 4.63165 10.7989 4.97815 10.5345L3.61352 8.74577ZM3.61352 8.74577L4.97815 10.5345C5.2939 10.2936 5.54026 9.97346 5.69221 9.60653C5.84415 9.2396 5.89628 8.83899 5.84327 8.4454L3.61352 8.74577ZM2.9329 7.9144C3.2389 8.2879 3.42565 8.5174 3.54715 8.69177C3.67427 8.87515 3.62927 8.86165 3.61352 8.74577L5.84327 8.4454C5.78477 8.0134 5.57215 7.66352 5.3944 7.40815C5.21102 7.14377 4.95565 6.8344 4.6744 6.49015L2.9329 7.9144ZM2.20165 6.77027C2.28377 7.02902 2.4109 7.2349 2.53015 7.40252C2.64265 7.56002 2.78777 7.73665 2.9329 7.9144L4.6744 6.49015C4.56676 6.36192 4.46284 6.23174 4.36277 6.09752C4.3099 6.0244 4.3279 6.0334 4.34477 6.08627L2.20165 6.77027ZM2.2804 5.1919C2.06417 5.69119 2.03619 6.25193 2.20165 6.77027L4.34477 6.08627L2.2804 5.1919ZM3.1219 4.12652C2.95877 4.28965 2.7979 4.4494 2.66965 4.59565C2.50937 4.77271 2.37801 4.97393 2.2804 5.1919L4.34477 6.08627C4.32227 6.13802 4.30427 6.1459 4.3639 6.07727C4.4314 6.00077 4.52927 5.90177 4.71265 5.71727L3.1219 4.12652ZM4.12765 3.1219L3.1219 4.12652L4.71265 5.71727L5.71952 4.71265L4.12765 3.1219ZM5.1919 2.27927C4.97385 2.37723 4.77263 2.50897 4.59565 2.66965C4.43504 2.81555 4.27896 2.96637 4.12765 3.1219L5.71952 4.71265C5.9029 4.52815 6.0019 4.43027 6.0784 4.3639C6.1459 4.30315 6.13802 4.32115 6.08627 4.34365L5.1919 2.27927ZM6.7714 2.20052C6.25271 2.03478 5.69152 2.06276 5.1919 2.27927L6.08627 4.34365L6.7714 2.20052ZM7.91327 2.93177C7.73552 2.78665 7.56115 2.64265 7.40252 2.53015C7.21077 2.38779 6.99779 2.27655 6.7714 2.20052L6.08627 4.34365C6.0334 4.32677 6.02327 4.3099 6.09752 4.36165C6.17965 4.42127 6.28877 4.50902 6.49015 4.6744L7.91327 2.93177ZM8.74577 3.6124C8.86165 3.62815 8.87515 3.67315 8.69177 3.54602C8.42619 3.35044 8.1673 3.14595 7.91552 2.9329L6.49015 4.6744C6.8344 4.95565 7.14265 5.2099 7.40702 5.3944C7.66127 5.57102 8.01227 5.78365 8.44427 5.84215L8.74577 3.6124ZM8.74577 3.6124L8.4454 5.84215C8.83909 5.89502 9.23977 5.84273 9.60671 5.69058C9.97364 5.53843 10.2938 5.29185 10.5345 4.9759L8.74577 3.6124ZM8.85265 2.54365C8.80427 3.02515 8.7739 3.3199 8.73677 3.52802C8.6974 3.7474 8.6749 3.70577 8.74577 3.6124L10.5345 4.9759C10.7989 4.6294 10.8956 4.23115 10.9508 3.92627C11.007 3.61015 11.0475 3.21077 11.0914 2.76752L8.85265 2.54365ZM9.1429 1.2184C9.03637 1.43225 8.96424 1.66157 8.92915 1.8979C8.89765 2.08915 8.87515 2.31527 8.85265 2.54477L11.0914 2.76752C11.1061 2.60096 11.1248 2.43591 11.1476 2.27027C11.1634 2.18027 11.169 2.20052 11.1431 2.25002L9.1429 1.2184ZM10.3163 0.157523C9.80964 0.35747 9.39273 0.734408 9.1429 1.2184L11.1431 2.25002L10.3163 0.157523ZM11.664 2.29569e-05C11.4345 2.29569e-05 11.2061 2.2999e-05 11.0126 0.012398C10.774 0.0238006 10.5386 0.0727773 10.3151 0.157523L11.1443 2.25002C11.0914 2.27027 11.0734 2.26352 11.1634 2.2579C11.2646 2.25115 11.4053 2.25002 11.6651 2.25002L11.664 2.29569e-05ZM13.086 2.29569e-05H11.664V2.25002H13.086V2.29569e-05ZM14.4338 0.157523C14.2103 0.0727773 13.975 0.0238006 13.7363 0.012398C13.545 -0.001102 13.3166 2.29569e-05 13.0871 2.29569e-05V2.25002C13.347 2.25002 13.4876 2.25002 13.5889 2.2579C13.6789 2.26352 13.6598 2.27027 13.6069 2.25002L14.4338 0.157523ZM15.6071 1.2184C15.3573 0.734408 14.9404 0.35747 14.4338 0.157523L13.6069 2.25002L15.6071 1.2184ZM15.75 12.375C15.75 13.2701 15.3944 14.1286 14.7615 14.7615C14.1286 15.3944 13.2701 15.75 12.375 15.75V18C13.8669 18 15.2976 17.4074 16.3525 16.3525C17.4074 15.2976 18 13.8669 18 12.375H15.75ZM12.375 9.00002C13.2701 9.00002 14.1286 9.3556 14.7615 9.98854C15.3944 10.6215 15.75 11.4799 15.75 12.375H18C18 10.8832 17.4074 9.45244 16.3525 8.39755C15.2976 7.34266 13.8669 6.75002 12.375 6.75002V9.00002ZM9.00002 12.375C9.00002 11.4799 9.3556 10.6215 9.98854 9.98854C10.6215 9.3556 11.4799 9.00002 12.375 9.00002V6.75002C10.8832 6.75002 9.45244 7.34266 8.39755 8.39755C7.34266 9.45244 6.75002 10.8832 6.75002 12.375H9.00002ZM12.375 15.75C11.4799 15.75 10.6215 15.3944 9.98854 14.7615C9.3556 14.1286 9.00002 13.2701 9.00002 12.375H6.75002C6.75002 13.8669 7.34266 15.2976 8.39755 16.3525C9.45244 17.4074 10.8832 18 12.375 18V15.75Z" fill="black"/>
</svg>
