<svg width="26" height="22" viewBox="0 0 26 22" fill="none" xmlns="http://www.w3.org/2000/svg">
<path d="M23.492 16.5C24.2003 16.5 24.7974 16.72 25.2833 17.16C25.7692 17.6 26.008 18.1133 25.9998 18.7L16.0797 22L7.43204 19.8V9.9H9.84103L18.8222 12.859C19.4646 13.0863 19.7858 13.497 19.7858 14.091C19.7858 14.4357 19.6458 14.7363 19.3658 14.993C19.0858 15.2497 18.7316 15.3853 18.3034 15.4H14.8443L12.6824 14.663L12.2747 15.697L14.8443 16.5H23.492ZM18.5505 1.353C19.4235 0.451 20.5353 0 21.886 0C23.0061 0 23.9532 0.366667 24.7274 1.1C25.5015 1.83333 25.9133 2.67667 25.9627 3.63C25.9627 4.38533 25.5509 5.28733 24.7274 6.336C23.9038 7.38467 23.0925 8.261 22.2937 8.965C21.4948 9.669 20.247 10.714 18.5505 12.1C16.8374 10.714 15.5773 9.669 14.7702 8.965C13.9631 8.261 13.1518 7.38467 12.3365 6.336C11.5211 5.28733 11.1217 4.38533 11.1382 3.63C11.1382 2.63267 11.5376 1.78933 12.3365 1.1C13.1354 0.410667 14.099 0.044 15.2273 0C16.545 0 17.6527 0.451 18.5505 1.353ZM0 9.9H4.96128V22H0V9.9Z" fill="black"/>
</svg>
