<svg width="24" height="25" viewBox="0 0 24 25" fill="none" xmlns="http://www.w3.org/2000/svg">
<path d="M2.77 10.9411C2.34 10.9411 2 10.6011 2 10.1711V7.8611C2 5.1511 4.21 2.9411 6.92 2.9411H9.23C9.66 2.9411 10 3.2811 10 3.7111C10 4.1411 9.66 4.4811 9.23 4.4811H6.92C5.05 4.4811 3.54 6.0011 3.54 7.8611V10.1711C3.54 10.6011 3.19 10.9411 2.77 10.9411Z" fill="white"/>
<path d="M21.23 10.9411C20.81 10.9411 20.46 10.6011 20.46 10.1711V7.8611C20.46 5.9911 18.94 4.4811 17.08 4.4811H14.77C14.34 4.4811 14 4.1311 14 3.7111C14 3.2911 14.34 2.9411 14.77 2.9411H17.08C19.79 2.9411 22 5.1511 22 7.8611V10.1711C22 10.6011 21.66 10.9411 21.23 10.9411Z" fill="white"/>
<path d="M17.08 22.9411H15.69C15.27 22.9411 14.92 22.6011 14.92 22.1711C14.92 21.7511 15.26 21.4011 15.69 21.4011H17.08C18.95 21.4011 20.46 19.8811 20.46 18.0211V16.6411C20.46 16.2211 20.8 15.8711 21.23 15.8711C21.65 15.8711 22 16.2111 22 16.6411V18.0211C22 20.7311 19.79 22.9411 17.08 22.9411Z" fill="white"/>
<path d="M9.23 22.9411H6.92C4.21 22.9411 2 20.7311 2 18.0211V15.7111C2 15.2811 2.34 14.9411 2.77 14.9411C3.2 14.9411 3.54 15.2811 3.54 15.7111V18.0211C3.54 19.8911 5.06 21.4011 6.92 21.4011H9.23C9.65 21.4011 10 21.7411 10 22.1711C10 22.6011 9.66 22.9411 9.23 22.9411Z" fill="white"/>
<path d="M18.46 12.1711H17.1H6.90002H5.54002C5.11002 12.1711 4.77002 12.5211 4.77002 12.9411C4.77002 13.3611 5.11002 13.7111 5.54002 13.7111H6.90002H17.1H18.46C18.89 13.7111 19.23 13.3611 19.23 12.9411C19.23 12.5211 18.89 12.1711 18.46 12.1711Z" fill="white"/>
<path d="M6.90002 14.8811V15.2111C6.90002 16.8711 8.24002 18.2111 9.90002 18.2111H14.1C15.76 18.2111 17.1 16.8711 17.1 15.2111V14.8811C17.1 14.7611 17.01 14.6711 16.89 14.6711H7.11002C6.99002 14.6711 6.90002 14.7611 6.90002 14.8811Z" fill="white"/>
<path d="M6.90002 11.0011V10.6711C6.90002 9.01111 8.24002 7.67111 9.90002 7.67111H14.1C15.76 7.67111 17.1 9.01111 17.1 10.6711V11.0011C17.1 11.1211 17.01 11.2111 16.89 11.2111H7.11002C6.99002 11.2111 6.90002 11.1211 6.90002 11.0011Z" fill="white"/>
</svg>
