<svg width="313" height="313" viewBox="0 0 313 313" fill="none" xmlns="http://www.w3.org/2000/svg">
<g clip-path="url(#clip0_2001_1065)">
<path d="M156 202C156 202 121 160.458 121 142.85C121 138.667 121.905 134.526 123.664 130.662C125.423 126.797 128.001 123.286 131.251 120.329C134.501 117.371 138.36 115.025 142.606 113.424C146.852 111.824 151.404 111 156 111C160.596 111 165.148 111.824 169.394 113.424C173.64 115.025 177.499 117.371 180.749 120.329C183.999 123.286 186.577 126.797 188.336 130.662C190.095 134.526 191 138.667 191 142.85C191 160.458 156 202 156 202ZM156 151.95C158.652 151.95 161.196 150.991 163.071 149.285C164.946 147.578 166 145.263 166 142.85C166 140.437 164.946 138.122 163.071 136.415C161.196 134.709 158.652 133.75 156 133.75C153.348 133.75 150.804 134.709 148.929 136.415C147.054 138.122 146 140.437 146 142.85C146 145.263 147.054 147.578 148.929 149.285C150.804 150.991 153.348 151.95 156 151.95Z" fill="#A5D022" fill-opacity="0.8"/>
</g>
<circle opacity="0.5" cx="154" cy="157" r="99.5" fill="#A5D6A7" fill-opacity="0.38" stroke="#A5D6A7"/>
<circle opacity="0.5" cx="156.5" cy="156.5" r="156" stroke="#A5D6A7"/>
<circle cx="233.5" cy="215.5" r="3.5" fill="#A5D6A7"/>
<circle cx="72.5" cy="287.5" r="3.5" fill="#A5D6A7"/>
<circle cx="92.5" cy="79.5" r="3.5" fill="#A5D6A7"/>
<defs>
<clipPath id="clip0_2001_1065">
<rect width="100" height="91" fill="white" transform="translate(106 111)"/>
</clipPath>
</defs>
</svg>
