<svg width="109" height="17" viewBox="0 0 109 17" fill="none" xmlns="http://www.w3.org/2000/svg">
<path d="M11.3864 7.18182C11.3864 8.42424 11.1591 9.49242 10.7045 10.3864C10.25 11.2765 9.62689 11.9621 8.83523 12.4432C8.04735 12.9205 7.15152 13.1591 6.14773 13.1591C5.14015 13.1591 4.24053 12.9205 3.44886 12.4432C2.66098 11.9621 2.03977 11.2746 1.58523 10.3807C1.13068 9.48674 0.903409 8.42045 0.903409 7.18182C0.903409 5.93939 1.13068 4.87311 1.58523 3.98295C2.03977 3.08901 2.66098 2.40341 3.44886 1.92614C4.24053 1.44508 5.14015 1.20455 6.14773 1.20455C7.15152 1.20455 8.04735 1.44508 8.83523 1.92614C9.62689 2.40341 10.25 3.08901 10.7045 3.98295C11.1591 4.87311 11.3864 5.93939 11.3864 7.18182ZM9.64773 7.18182C9.64773 6.23485 9.49432 5.4375 9.1875 4.78977C8.88447 4.13826 8.4678 3.64583 7.9375 3.3125C7.41098 2.97538 6.81439 2.80682 6.14773 2.80682C5.47727 2.80682 4.87879 2.97538 4.35227 3.3125C3.82576 3.64583 3.40909 4.13826 3.10227 4.78977C2.79924 5.4375 2.64773 6.23485 2.64773 7.18182C2.64773 8.12879 2.79924 8.92803 3.10227 9.57955C3.40909 10.2273 3.82576 10.7197 4.35227 11.0568C4.87879 11.3902 5.47727 11.5568 6.14773 11.5568C6.81439 11.5568 7.41098 11.3902 7.9375 11.0568C8.4678 10.7197 8.88447 10.2273 9.1875 9.57955C9.49432 8.92803 9.64773 8.12879 9.64773 7.18182ZM13.4389 13V4.27273H15.081V5.65909H15.1719C15.331 5.18939 15.6113 4.82008 16.0128 4.55114C16.4181 4.27841 16.8764 4.14205 17.3878 4.14205C17.4938 4.14205 17.6188 4.14583 17.7628 4.15341C17.9105 4.16098 18.026 4.17045 18.1094 4.18182V5.80682C18.0412 5.78788 17.92 5.76705 17.7457 5.74432C17.5715 5.7178 17.3973 5.70455 17.223 5.70455C16.8215 5.70455 16.4635 5.78977 16.1491 5.96023C15.8385 6.12689 15.5923 6.35985 15.4105 6.65909C15.2287 6.95455 15.1378 7.29167 15.1378 7.67045V13H13.4389ZM30.3537 6.40341L28.8139 6.67614C28.7495 6.47917 28.6473 6.29167 28.5071 6.11364C28.3707 5.93561 28.1851 5.78977 27.9503 5.67614C27.7154 5.5625 27.4219 5.50568 27.0696 5.50568C26.5885 5.50568 26.187 5.61364 25.8651 5.82955C25.5431 6.04167 25.3821 6.31629 25.3821 6.65341C25.3821 6.94508 25.4901 7.17992 25.706 7.35795C25.9219 7.53598 26.2704 7.68182 26.7514 7.79545L28.1378 8.11364C28.9408 8.29924 29.5393 8.58523 29.9332 8.97159C30.3272 9.35795 30.5241 9.85985 30.5241 10.4773C30.5241 11 30.3726 11.4659 30.0696 11.875C29.7704 12.2803 29.3518 12.5985 28.8139 12.8295C28.2798 13.0606 27.6605 13.1761 26.956 13.1761C25.9787 13.1761 25.1813 12.9678 24.5639 12.5511C23.9465 12.1307 23.5677 11.5341 23.4276 10.7614L25.0696 10.5114C25.1719 10.9394 25.3821 11.2633 25.7003 11.483C26.0185 11.6989 26.4332 11.8068 26.9446 11.8068C27.5014 11.8068 27.9465 11.6913 28.2798 11.4602C28.6132 11.2254 28.7798 10.9394 28.7798 10.6023C28.7798 10.3295 28.6776 10.1004 28.473 9.91477C28.2723 9.72917 27.9635 9.58902 27.5469 9.49432L26.0696 9.17045C25.2552 8.98485 24.6529 8.68939 24.2628 8.28409C23.8764 7.87879 23.6832 7.36553 23.6832 6.74432C23.6832 6.22917 23.8272 5.77841 24.1151 5.39205C24.4029 5.00568 24.8007 4.70455 25.3082 4.48864C25.8158 4.26894 26.3973 4.15909 27.0526 4.15909C27.9957 4.15909 28.7382 4.36364 29.2798 4.77273C29.8215 5.17803 30.1795 5.72159 30.3537 6.40341ZM32.392 13V4.27273H34.0909V13H32.392ZM33.25 2.92614C32.9545 2.92614 32.7008 2.82765 32.4886 2.63068C32.2803 2.42992 32.1761 2.19129 32.1761 1.91477C32.1761 1.63447 32.2803 1.39583 32.4886 1.19886C32.7008 0.998106 32.9545 0.897727 33.25 0.897727C33.5455 0.897727 33.7973 0.998106 34.0057 1.19886C34.2178 1.39583 34.3239 1.63447 34.3239 1.91477C34.3239 2.19129 34.2178 2.42992 34.0057 2.63068C33.7973 2.82765 33.5455 2.92614 33.25 2.92614ZM40.0355 16.4545C39.3423 16.4545 38.7457 16.3636 38.2457 16.1818C37.7495 16 37.3442 15.7595 37.0298 15.4602C36.7154 15.161 36.4806 14.8333 36.3253 14.4773L37.7855 13.875C37.8878 14.0417 38.0241 14.2178 38.1946 14.4034C38.3688 14.5928 38.6037 14.7538 38.8991 14.8864C39.1984 15.0189 39.5829 15.0852 40.0526 15.0852C40.6965 15.0852 41.2287 14.928 41.6491 14.6136C42.0696 14.303 42.2798 13.8068 42.2798 13.125V11.4091H42.1719C42.0696 11.5947 41.9219 11.8011 41.7287 12.0284C41.5393 12.2557 41.2779 12.4527 40.9446 12.6193C40.6113 12.786 40.1776 12.8693 39.6435 12.8693C38.9541 12.8693 38.3329 12.7083 37.7798 12.3864C37.2306 12.0606 36.795 11.5814 36.473 10.9489C36.1548 10.3125 35.9957 9.5303 35.9957 8.60227C35.9957 7.67424 36.1529 6.87879 36.4673 6.21591C36.7855 5.55303 37.2211 5.04545 37.7741 4.69318C38.3272 4.33712 38.9541 4.15909 39.6548 4.15909C40.1965 4.15909 40.634 4.25 40.9673 4.43182C41.3007 4.60985 41.5601 4.81818 41.7457 5.05682C41.9351 5.29545 42.081 5.50568 42.1832 5.6875H42.3082V4.27273H43.973V13.1932C43.973 13.9432 43.7988 14.5587 43.4503 15.0398C43.1018 15.5208 42.6302 15.8769 42.0355 16.108C41.4446 16.339 40.7779 16.4545 40.0355 16.4545ZM40.0185 11.4602C40.5071 11.4602 40.92 11.3466 41.2571 11.1193C41.598 10.8883 41.8556 10.5587 42.0298 10.1307C42.2079 9.69886 42.2969 9.18182 42.2969 8.57955C42.2969 7.99242 42.2098 7.47538 42.0355 7.02841C41.8613 6.58144 41.6056 6.23295 41.2685 5.98295C40.9313 5.72917 40.5147 5.60227 40.0185 5.60227C39.5071 5.60227 39.081 5.73485 38.7401 6C38.3991 6.26136 38.1416 6.61742 37.9673 7.06818C37.7969 7.51894 37.7116 8.02273 37.7116 8.57955C37.7116 9.15152 37.7988 9.65341 37.973 10.0852C38.1473 10.517 38.4048 10.8542 38.7457 11.0966C39.0904 11.339 39.5147 11.4602 40.0185 11.4602ZM47.9503 7.81818V13H46.2514V4.27273H47.8821V5.69318H47.9901C48.1908 5.23106 48.5052 4.85985 48.9332 4.57955C49.3651 4.29924 49.9086 4.15909 50.5639 4.15909C51.1586 4.15909 51.6795 4.28409 52.1264 4.53409C52.5734 4.7803 52.92 5.14773 53.1662 5.63636C53.4124 6.125 53.5355 6.72917 53.5355 7.44886V13H51.8366V7.65341C51.8366 7.02083 51.6719 6.52652 51.3423 6.17045C51.0128 5.81061 50.5601 5.63068 49.9844 5.63068C49.5904 5.63068 49.2401 5.71591 48.9332 5.88636C48.6302 6.05682 48.3897 6.30682 48.2116 6.63636C48.0374 6.96212 47.9503 7.35606 47.9503 7.81818ZM60.0483 13V4.27273H61.7472V13H60.0483ZM60.9062 2.92614C60.6108 2.92614 60.357 2.82765 60.1449 2.63068C59.9366 2.42992 59.8324 2.19129 59.8324 1.91477C59.8324 1.63447 59.9366 1.39583 60.1449 1.19886C60.357 0.998106 60.6108 0.897727 60.9062 0.897727C61.2017 0.897727 61.4536 0.998106 61.6619 1.19886C61.8741 1.39583 61.9801 1.63447 61.9801 1.91477C61.9801 2.19129 61.8741 2.42992 61.6619 2.63068C61.4536 2.82765 61.2017 2.92614 60.9062 2.92614ZM65.7315 7.81818V13H64.0327V4.27273H65.6634V5.69318H65.7713C65.9721 5.23106 66.2865 4.85985 66.7145 4.57955C67.1463 4.29924 67.6899 4.15909 68.3452 4.15909C68.9399 4.15909 69.4607 4.28409 69.9077 4.53409C70.3546 4.7803 70.7012 5.14773 70.9474 5.63636C71.1937 6.125 71.3168 6.72917 71.3168 7.44886V13H69.6179V7.65341C69.6179 7.02083 69.4531 6.52652 69.1236 6.17045C68.794 5.81061 68.3414 5.63068 67.7656 5.63068C67.3717 5.63068 67.0213 5.71591 66.7145 5.88636C66.4115 6.05682 66.1709 6.30682 65.9929 6.63636C65.8187 6.96212 65.7315 7.35606 65.7315 7.81818ZM79.7216 13L77.1534 4.27273H78.9091L80.6193 10.6818H80.7045L82.4205 4.27273H84.1761L85.8807 10.6534H85.9659L87.6648 4.27273H89.4205L86.858 13H85.125L83.3523 6.69886H83.2216L81.4489 13H79.7216ZM91.0327 13V4.27273H92.7315V13H91.0327ZM91.8906 2.92614C91.5952 2.92614 91.3414 2.82765 91.1293 2.63068C90.9209 2.42992 90.8168 2.19129 90.8168 1.91477C90.8168 1.63447 90.9209 1.39583 91.1293 1.19886C91.3414 0.998106 91.5952 0.897727 91.8906 0.897727C92.1861 0.897727 92.438 0.998106 92.6463 1.19886C92.8584 1.39583 92.9645 1.63447 92.9645 1.91477C92.9645 2.19129 92.8584 2.42992 92.6463 2.63068C92.438 2.82765 92.1861 2.92614 91.8906 2.92614ZM99.0909 4.27273V5.63636H94.3239V4.27273H99.0909ZM95.6023 2.18182H97.3011V10.4375C97.3011 10.767 97.3504 11.0152 97.4489 11.1818C97.5473 11.3447 97.6742 11.4564 97.8295 11.517C97.9886 11.5739 98.161 11.6023 98.3466 11.6023C98.483 11.6023 98.6023 11.5928 98.7045 11.5739C98.8068 11.5549 98.8864 11.5398 98.9432 11.5284L99.25 12.9318C99.1515 12.9697 99.0114 13.0076 98.8295 13.0455C98.6477 13.0871 98.4205 13.1098 98.1477 13.1136C97.7008 13.1212 97.2841 13.0417 96.8977 12.875C96.5114 12.7083 96.1989 12.4508 95.9602 12.1023C95.7216 11.7538 95.6023 11.3163 95.6023 10.7898V2.18182ZM102.857 7.81818V13H101.158V1.36364H102.834V5.69318H102.942C103.146 5.22348 103.459 4.85038 103.879 4.57386C104.3 4.29735 104.849 4.15909 105.527 4.15909C106.125 4.15909 106.648 4.2822 107.095 4.52841C107.546 4.77462 107.894 5.14205 108.141 5.63068C108.391 6.11553 108.516 6.72159 108.516 7.44886V13H106.817V7.65341C106.817 7.01326 106.652 6.51705 106.322 6.16477C105.993 5.80871 105.535 5.63068 104.947 5.63068C104.546 5.63068 104.186 5.71591 103.868 5.88636C103.554 6.05682 103.305 6.30682 103.124 6.63636C102.946 6.96212 102.857 7.35606 102.857 7.81818Z" fill="#8D8D8D"/>
</svg>
